<?xml version="1.0" encoding="UTF-8"?>
<svg viewBox="0 0 800 500" xmlns="http://www.w3.org/2000/svg">
    <!-- Background -->
    <rect width="800" height="500" fill="#f8f9fa" rx="5" ry="5" />

    <!-- Title -->
    <text x="400" y="40" font-family="Arial" font-size="24" font-weight="bold" text-anchor="middle"
        fill="#333">SPIFFE/SPIRE Authentication Flow</text>

    <!-- SPIRE Server -->
    <rect x="320" y="80" width="160" height="80" rx="5" ry="5" fill="#6b9bd2" stroke="#4a6b95"
        stroke-width="2" />
    <text x="400" y="110" font-family="Arial" font-size="18" font-weight="bold" text-anchor="middle"
        fill="white">SPIRE Server</text>
    <text x="400" y="135" font-family="Arial" font-size="14" text-anchor="middle" fill="white">Identity
        Control Plane</text>

    <!-- Workload Hosts with Agents -->
    <!-- Developer Workstation with SPIRE Agent -->
    <rect x="80" y="200" width="180" height="130" rx="5" ry="5" fill="#e8e8e8" stroke="#d0d0d0"
        stroke-width="2" />
    <text x="170" y="220" font-family="Arial" font-size="14" font-weight="bold" text-anchor="middle"
        fill="#333">Developer Workstation</text>

    <rect x="100" y="235" width="140" height="35" rx="3" ry="3" fill="#337ab7" stroke="#2e6da4"
        stroke-width="2" />
    <text x="170" y="258" font-family="Arial" font-size="14" text-anchor="middle" fill="white">SPIRE
        Agent</text>

    <rect x="100" y="280" width="140" height="35" rx="3" ry="3" fill="#5cb85c" stroke="#4cae4c"
        stroke-width="2" />
    <text x="170" y="302" font-family="Arial" font-size="14" text-anchor="middle" fill="white">Local
        Applications</text>

    <!-- Kubernetes Node with SPIRE Agent -->
    <rect x="310" y="200" width="180" height="130" rx="5" ry="5" fill="#e8e8e8" stroke="#d0d0d0"
        stroke-width="2" />
    <text x="400" y="220" font-family="Arial" font-size="14" font-weight="bold" text-anchor="middle"
        fill="#333">Kubernetes Node</text>

    <rect x="330" y="235" width="140" height="35" rx="3" ry="3" fill="#337ab7" stroke="#2e6da4"
        stroke-width="2" />
    <text x="400" y="258" font-family="Arial" font-size="14" text-anchor="middle" fill="white">SPIRE
        Agent</text>

    <rect x="330" y="280" width="140" height="35" rx="3" ry="3" fill="#5cb85c" stroke="#4cae4c"
        stroke-width="2" />
    <text x="400" y="302" font-family="Arial" font-size="14" text-anchor="middle" fill="white">Kubernetes
        Pods</text>

    <!-- EC2 Instance with SPIRE Agent -->
    <rect x="540" y="200" width="180" height="130" rx="5" ry="5" fill="#e8e8e8" stroke="#d0d0d0"
        stroke-width="2" />
    <text x="630" y="220" font-family="Arial" font-size="14" font-weight="bold" text-anchor="middle"
        fill="#333">EC2 Instance</text>

    <rect x="560" y="235" width="140" height="35" rx="3" ry="3" fill="#337ab7" stroke="#2e6da4"
        stroke-width="2" />
    <text x="630" y="258" font-family="Arial" font-size="14" text-anchor="middle" fill="white">SPIRE
        Agent</text>

    <rect x="560" y="280" width="140" height="35" rx="3" ry="3" fill="#5cb85c" stroke="#4cae4c"
        stroke-width="2" />
    <text x="630" y="302" font-family="Arial" font-size="14" text-anchor="middle" fill="white">
        Services</text>

    <!-- Secret Managers -->
    <rect x="180" y="400" width="140" height="60" rx="5" ry="5" fill="#f0ad4e" stroke="#eea236"
        stroke-width="2" />
    <text x="250" y="425" font-family="Arial" font-size="14" font-weight="bold" text-anchor="middle"
        fill="white">AWS Secrets</text>
    <text x="250" y="445" font-family="Arial" font-size="14" text-anchor="middle" fill="white">
        Manager</text>

    <rect x="480" y="400" width="140" height="60" rx="5" ry="5" fill="#f0ad4e" stroke="#eea236"
        stroke-width="2" />
    <text x="550" y="425" font-family="Arial" font-size="14" font-weight="bold" text-anchor="middle"
        fill="white">HashiCorp</text>
    <text x="550" y="445" font-family="Arial" font-size="14" text-anchor="middle" fill="white">Vault</text>

    <!-- Flow Lines and Labels -->
    <!-- Attestation flows -->
    <path d="M170,235 L170,180 L320,130" stroke="#333" stroke-width="2" fill="none"
        stroke-dasharray="5,3" />
    <text x="210" y="170" font-family="Arial" font-size="12" text-anchor="middle" fill="#333">1.
        Attestation</text>

    <path d="M400,235 L400,160" stroke="#333" stroke-width="2" fill="none" stroke-dasharray="5,3" />
    <text x="450" y="190" font-family="Arial" font-size="12" text-anchor="middle" fill="#333">1.
        Attestation</text>

    <path d="M630,235 L630,180 L480,130" stroke="#333" stroke-width="2" fill="none"
        stroke-dasharray="5,3" />
    <text x="590" y="170" font-family="Arial" font-size="12" text-anchor="middle" fill="#333">1.
        Attestation</text>

    <!-- SVID issuance flows -->
    <path d="M320,140 L170,230" stroke="#d9534f" stroke-width="2" fill="none" />
    <text x="220" y="150" font-family="Arial" font-size="12" text-anchor="middle" fill="#d9534f">2.
        SVID Issuance</text>

    <path d="M400,160 L400,230" stroke="#d9534f" stroke-width="2" fill="none" />
    <text x="360" y="190" font-family="Arial" font-size="12" text-anchor="middle" fill="#d9534f">2.
        SVID</text>

    <path d="M480,140 L630,230" stroke="#d9534f" stroke-width="2" fill="none" />
    <text x="600" y="150" font-family="Arial" font-size="12" text-anchor="middle" fill="#d9534f">2.
        SVID Issuance</text>

    <!-- Secret fetching flows -->
    <path d="M170,330 C170,350 200,370 250,400" stroke="#5bc0de" stroke-width="2" fill="none" />
    <text x="150" y="360" font-family="Arial" font-size="12" text-anchor="middle" fill="#5bc0de">3.
        Secret</text>
    <text x="150" y="375" font-family="Arial" font-size="12" text-anchor="middle" fill="#5bc0de">
        Fetching</text>

    <path d="M400,330 C400,350 400,370 480,400" stroke="#5bc0de" stroke-width="2" fill="none" />
    <text x="400" y="360" font-family="Arial" font-size="12" text-anchor="middle" fill="#5bc0de">3.
        Secret</text>
    <text x="400" y="375" font-family="Arial" font-size="12" text-anchor="middle" fill="#5bc0de">
        Fetching</text>

    <path d="M630,330 C630,350 600,370 550,400" stroke="#5bc0de" stroke-width="2" fill="none" />
    <text x="650" y="360" font-family="Arial" font-size="12" text-anchor="middle" fill="#5bc0de">3.
        Secret</text>
    <text x="650" y="375" font-family="Arial" font-size="12" text-anchor="middle" fill="#5bc0de">
        Fetching</text>

    <!-- Legend - moved to bottom of diagram -->
    <rect x="150" y="470" width="500" height="20" rx="5" ry="5" fill="white" stroke="#ddd"
        stroke-width="1" />
    <rect x="200" y="474" width="12" height="12" fill="#337ab7" />
    <text x="220" y="484" font-family="Arial" font-size="10" text-anchor="start">SPIRE Agent</text>

    <rect x="310" y="474" width="12" height="12" fill="#6b9bd2" />
    <text x="330" y="484" font-family="Arial" font-size="10" text-anchor="start">SPIRE Server</text>

    <rect x="420" y="474" width="12" height="12" fill="#5cb85c" />
    <text x="440" y="484" font-family="Arial" font-size="10" text-anchor="start">Workloads</text>

    <rect x="520" y="474" width="12" height="12" fill="#f0ad4e" />
    <text x="540" y="484" font-family="Arial" font-size="10" text-anchor="start">Secret Managers</text>

</svg>